<svg width="1600" height="1000" viewBox="0 0 1600 1000" fill="none" xmlns="http://www.w3.org/2000/svg">
  <defs>
    <linearGradient id="bg" x1="0" y1="0" x2="0" y2="1000" gradientUnits="userSpaceOnUse">
      <stop stop-color="#0C1322"/>
      <stop offset="1" stop-color="#080E1C"/>
    </linearGradient>
    <linearGradient id="card" x1="0" y1="0" x2="1200" y2="780" gradientUnits="userSpaceOnUse">
      <stop stop-color="#1D2539"/>
      <stop offset="1" stop-color="#12192A"/>
    </linearGradient>
    <radialGradient id="glow" cx="0" cy="0" r="1" gradientUnits="userSpaceOnUse" gradientTransform="translate(1180 170) rotate(137.334) scale(540 420)">
      <stop stop-color="#52F2F5" stop-opacity="0.35"/>
      <stop offset="1" stop-color="#52F2F5" stop-opacity="0"/>
    </radialGradient>
    <filter id="shadow" x="130" y="65" width="1340" height="870" filterUnits="userSpaceOnUse" color-interpolation-filters="sRGB">
      <feDropShadow dx="0" dy="18" stdDeviation="26" flood-color="#000000" flood-opacity="0.45"/>
    </filter>
  </defs>

  <rect width="1600" height="1000" fill="url(#bg)"/>
  <circle cx="260" cy="140" r="260" fill="#00CED1" fill-opacity="0.08"/>
  <circle cx="1420" cy="880" r="360" fill="#52F2F5" fill-opacity="0.07"/>

  <g filter="url(#shadow)">
    <rect x="170" y="100" width="1260" height="800" rx="14" fill="#0F172A" stroke="#424858" stroke-opacity="0.45"/>
  </g>

  <rect x="170" y="100" width="1260" height="72" rx="14" fill="#12192A"/>
  <circle cx="210" cy="136" r="7" fill="#FF5449"/>
  <circle cx="236" cy="136" r="7" fill="#A5ABBD"/>
  <circle cx="262" cy="136" r="7" fill="#52F2F5"/>
  <rect x="310" y="120" width="220" height="32" rx="6" fill="#1D2539"/>
  <text x="332" y="141" fill="#E0E5F9" font-size="14" font-family="Inter, Arial, sans-serif" font-weight="600">BookFlow Dashboard</text>

  <rect x="210" y="210" width="250" height="640" rx="10" fill="#12192A" stroke="#424858" stroke-opacity="0.4"/>
  <text x="245" y="258" fill="#A5ABBD" font-size="13" font-family="Inter, Arial, sans-serif" letter-spacing="1.5">NAVIGATION</text>
  <rect x="236" y="286" width="198" height="42" rx="8" fill="#52F2F5" fill-opacity="0.16"/>
  <text x="258" y="313" fill="#52F2F5" font-size="15" font-family="Inter, Arial, sans-serif" font-weight="700">Overview</text>
  <text x="258" y="363" fill="#A5ABBD" font-size="15" font-family="Inter, Arial, sans-serif">Bookings</text>
  <text x="258" y="408" fill="#A5ABBD" font-size="15" font-family="Inter, Arial, sans-serif">Availability</text>
  <text x="258" y="453" fill="#A5ABBD" font-size="15" font-family="Inter, Arial, sans-serif">Services</text>
  <text x="258" y="498" fill="#A5ABBD" font-size="15" font-family="Inter, Arial, sans-serif">Customers</text>

  <rect x="500" y="210" width="890" height="640" rx="10" fill="url(#card)" stroke="#424858" stroke-opacity="0.42"/>
  <rect x="500" y="210" width="890" height="640" rx="10" fill="url(#glow)"/>

  <text x="548" y="272" fill="#E0E5F9" font-size="32" font-family="Manrope, Arial, sans-serif" font-weight="800">Today at a glance</text>
  <text x="550" y="305" fill="#A5ABBD" font-size="16" font-family="Inter, Arial, sans-serif">Performance summary for your business operations</text>

  <rect x="548" y="336" width="250" height="128" rx="10" fill="#0C1322" stroke="#424858" stroke-opacity="0.45"/>
  <rect x="818" y="336" width="250" height="128" rx="10" fill="#0C1322" stroke="#424858" stroke-opacity="0.45"/>
  <rect x="1088" y="336" width="250" height="128" rx="10" fill="#0C1322" stroke="#424858" stroke-opacity="0.45"/>

  <text x="572" y="372" fill="#A5ABBD" font-size="13" font-family="Inter, Arial, sans-serif">BOOKINGS TODAY</text>
  <text x="572" y="427" fill="#52F2F5" font-size="40" font-family="Manrope, Arial, sans-serif" font-weight="800">24</text>

  <text x="842" y="372" fill="#A5ABBD" font-size="13" font-family="Inter, Arial, sans-serif">REVENUE</text>
  <text x="842" y="427" fill="#52F2F5" font-size="40" font-family="Manrope, Arial, sans-serif" font-weight="800">EGP 9.8K</text>

  <text x="1112" y="372" fill="#A5ABBD" font-size="13" font-family="Inter, Arial, sans-serif">NO-SHOW RATE</text>
  <text x="1112" y="427" fill="#52F2F5" font-size="40" font-family="Manrope, Arial, sans-serif" font-weight="800">3.2%</text>

  <rect x="548" y="494" width="790" height="320" rx="10" fill="#0C1322" stroke="#424858" stroke-opacity="0.45"/>
  <text x="574" y="536" fill="#E0E5F9" font-size="20" font-family="Manrope, Arial, sans-serif" font-weight="700">Upcoming bookings</text>

  <rect x="574" y="560" width="738" height="56" rx="8" fill="#12192A"/>
  <rect x="574" y="628" width="738" height="56" rx="8" fill="#12192A"/>
  <rect x="574" y="696" width="738" height="56" rx="8" fill="#12192A"/>

  <text x="598" y="594" fill="#E0E5F9" font-size="14" font-family="Inter, Arial, sans-serif">Haircut + Beard</text>
  <text x="972" y="594" fill="#A5ABBD" font-size="13" font-family="Inter, Arial, sans-serif">12:30 PM</text>
  <text x="1162" y="594" fill="#52F2F5" font-size="13" font-family="Inter, Arial, sans-serif">CONFIRMED</text>

  <text x="598" y="662" fill="#E0E5F9" font-size="14" font-family="Inter, Arial, sans-serif">Personal Training</text>
  <text x="972" y="662" fill="#A5ABBD" font-size="13" font-family="Inter, Arial, sans-serif">02:00 PM</text>
  <text x="1162" y="662" fill="#52F2F5" font-size="13" font-family="Inter, Arial, sans-serif">CONFIRMED</text>

  <text x="598" y="730" fill="#E0E5F9" font-size="14" font-family="Inter, Arial, sans-serif">Math Tutoring</text>
  <text x="972" y="730" fill="#A5ABBD" font-size="13" font-family="Inter, Arial, sans-serif">04:15 PM</text>
  <text x="1162" y="730" fill="#52F2F5" font-size="13" font-family="Inter, Arial, sans-serif">CONFIRMED</text>
</svg>
